<svg xmlns="http://www.w3.org/2000/svg" viewBox="0 0 512 512">
  <rect width="512" height="512" rx="100" fill="#FEE500"/>
  <g transform="translate(106, 93) scale(13.6)" stroke="#3C1E1E" stroke-width="2" stroke-linecap="round" stroke-linejoin="round" fill="none">
    <path d="M6 22a2 2 0 0 1-2-2V4a2 2 0 0 1 2-2h8a2.4 2.4 0 0 1 1.704.706l3.588 3.588A2.4 2.4 0 0 1 20 8v12a2 2 0 0 1-2 2z"/>
    <path d="M14 2v5a1 1 0 0 0 1 1h5"/>
    <path d="M10 9H8"/>
    <path d="M16 13H8"/>
    <path d="M16 17H8"/>
  </g>
</svg>